<svg xmlns="http://www.w3.org/2000/svg" viewBox="0 0 1200 800" role="img" aria-label="Brand illustration of life at EIS">
<defs><linearGradient id="sky" x1="0" y1="0" x2="0" y2="1"><stop offset="0" stop-color="#ecead2"/><stop offset="1" stop-color="#dee3c2"/></linearGradient></defs><rect x="0" y="0" width="1200" height="800" rx="0" fill="url(#sky)" /><circle cx="1032" cy="150" r="80" fill="#d9a24b" opacity=".3"/><circle cx="1032" cy="150" r="56" fill="#d9a24b" /><circle cx="1016" cy="134" r="22.400000000000002" fill="#e9c37e" opacity=".6"/><g opacity="0.72" fill="#f8f3e2"><circle cx="168.00000000000003" cy="140" r="20" fill="undefined" /><circle cx="194.00000000000003" cy="127" r="27" fill="undefined" /><circle cx="226.00000000000003" cy="136" r="18" fill="undefined" /><circle cx="248.00000000000003" cy="140" r="25" fill="undefined" /><rect x="168.00000000000003" y="137" width="92" height="21" rx="11" fill="#f8f3e2" /></g><g opacity="0.6" fill="#f8f3e2"><circle cx="840" cy="78" r="14" fill="undefined" /><circle cx="858.2" cy="68.9" r="18.9" fill="undefined" /><circle cx="880.6" cy="75.2" r="12.6" fill="undefined" /><circle cx="896" cy="78" r="17.5" fill="undefined" /><rect x="840" y="75.9" width="64.39999999999999" height="14.7" rx="11" fill="#f8f3e2" /></g><path d="M0 574 Q 384 486 744 544 T 1200 578 L 1200 620 L 0 620 Z" fill="#c7d2ae" opacity=".55"/><path d="M-40 626 Q 288 564 600 602 T 1230 622 L 1230 694 Q 672.0000000000001 606 -10 650 Z" fill="#b1c49a" opacity=".5"/><defs><linearGradient id="gr" x1="0" y1="0" x2="0" y2="1"><stop offset="0" stop-color="#d9dbb8"/><stop offset="1" stop-color="#a6b98c"/></linearGradient></defs><path d="M0 620 L 1200 620 L 1200 800 L 0 800 Z" fill="url(#gr)" /><path d="M 40 620 Q 250 608 480 620 Q 780 632 1160 620" fill="none" stroke="#8fa378" stroke-width="3" opacity="0.5"/><rect x="140" y="300" width="420" height="300" rx="4" fill="#e9e8d2" /><rect x="133" y="285" width="28" height="17" rx="3" fill="#a3692e" /><rect x="539" y="285" width="28" height="17" rx="3" fill="#a3692e" /><rect x="160" y="326" width="24" height="18" rx="2" fill="#2d6a42" stroke="#f7f3e0" stroke-width="3"/><rect x="160" y="376" width="24" height="18" rx="2" fill="#2d6a42" stroke="#f7f3e0" stroke-width="3"/><rect x="214" y="326" width="24" height="18" rx="2" fill="#2d6a42" stroke="#f7f3e0" stroke-width="3"/><rect x="214" y="376" width="24" height="18" rx="2" fill="#2d6a42" stroke="#f7f3e0" stroke-width="3"/><rect x="268" y="326" width="24" height="18" rx="2" fill="#2d6a42" stroke="#f7f3e0" stroke-width="3"/><rect x="268" y="376" width="24" height="18" rx="2" fill="#2d6a42" stroke="#f7f3e0" stroke-width="3"/><rect x="322" y="326" width="24" height="18" rx="2" fill="#2d6a42" stroke="#f7f3e0" stroke-width="3"/><rect x="322" y="376" width="24" height="18" rx="2" fill="#2d6a42" stroke="#f7f3e0" stroke-width="3"/><path d="M 332 600 L 332 558 A 18 18 0 0 1 368 558 L 368 600 Z" fill="#5a3a22" /><rect x="700" y="330" width="320" height="270" rx="4" fill="#f2ecd7" /><rect x="693" y="315" width="28" height="17" rx="3" fill="#a3692e" /><rect x="999" y="315" width="28" height="17" rx="3" fill="#a3692e" /><rect x="720" y="356" width="24" height="18" rx="2" fill="#2d6a42" stroke="#f7f3e0" stroke-width="3"/><rect x="720" y="406" width="24" height="18" rx="2" fill="#2d6a42" stroke="#f7f3e0" stroke-width="3"/><rect x="774" y="356" width="24" height="18" rx="2" fill="#2d6a42" stroke="#f7f3e0" stroke-width="3"/><rect x="774" y="406" width="24" height="18" rx="2" fill="#2d6a42" stroke="#f7f3e0" stroke-width="3"/><rect x="828" y="356" width="24" height="18" rx="2" fill="#2d6a42" stroke="#f7f3e0" stroke-width="3"/><rect x="828" y="406" width="24" height="18" rx="2" fill="#2d6a42" stroke="#f7f3e0" stroke-width="3"/><rect x="160" y="640" width="260" height="40" rx="6" fill="#c7b88f" /><rect x="680" y="640" width="220" height="40" rx="6" fill="#c7b88f" /><g><path d="M 430 2160 L 670 120 L 1330 -60 L 1510 2160 Q 970 1560 430 2160 Z" fill="#78563a" /><path d="M -590 360 Q 190 -1020 1030 -600 Q 2230 -1380 2710 360 Q 1930 1140 850 840 Q -110 960 -590 360 Z" fill="#1e5a33" /><circle cx="850" cy="-240" r="270" fill="#1e5a33" opacity=".35"/><circle cx="2050" cy="-60" r="240" fill="#1e5a33" opacity=".4"/></g><g><path d="M 1392 1888 L 1600 120 L 2172 -36 L 2328 1888 Q 1860 1368 1392 1888 Z" fill="#78563a" /><path d="M 508 328 Q 1184 -868 1912 -504 Q 2952 -1180 3368 328 Q 2692 1004 1756 744 Q 924 848 508 328 Z" fill="#1e5a33" /><circle cx="1756" cy="-192" r="234" fill="#1e5a33" opacity=".35"/><circle cx="2796" cy="-36" r="208" fill="#1e5a33" opacity=".4"/></g><circle cx="220" cy="678" r="286" fill="#8d5a3a" /><path d="M -66 676 a 13 13 0 0 1 26 0 c 0 6 -5 8 -13 8 s -13 -2 -13 -8 Z" fill="#11100c" /><path d="M -44 744 Q 220 898 484 744 L 572 1448 Q 220 1624 -132 1448 Z" fill="#3d5b43" /><circle cx="1364" cy="678" r="286" fill="#7c4a2e" /><path d="M 1078 676 a 13 13 0 0 1 26 0 c 0 6 -5 8 -13 8 s -13 -2 -13 -8 Z" fill="#3a2414" /><path d="M 1100 744 Q 1364 898 1628 744 L 1716 1448 Q 1364 1624 1012 1448 Z" fill="#2c4c66" /><circle cx="2508" cy="678" r="286" fill="#b98a5e" /><path d="M 2222 676 a 13 13 0 0 1 26 0 c 0 6 -5 8 -13 8 s -13 -2 -13 -8 Z" fill="#1c150e" /><path d="M 2244 744 Q 2508 898 2772 744 L 2860 1448 Q 2508 1624 2156 1448 Z" fill="#7a5223" /><circle cx="760" cy="698" r="286" fill="#b98a5e" /><path d="M 474 696 a 13 13 0 0 1 26 0 c 0 6 -5 8 -13 8 s -13 -2 -13 -8 Z" fill="#1c150e" /><path d="M 496 764 Q 760 918 1024 764 L 1112 1468 Q 760 1644 408 1468 Z" fill="#7a5223" /><circle cx="1904" cy="698" r="286" fill="#a27144" /><path d="M 1618 696 a 13 13 0 0 1 26 0 c 0 6 -5 8 -13 8 s -13 -2 -13 -8 Z" fill="#2a1c10" /><path d="M 1640 764 Q 1904 918 2168 764 L 2256 1468 Q 1904 1644 1552 1468 Z" fill="#24573b" /><circle cx="3048" cy="698" r="286" fill="#8d5a3a" /><path d="M 2762 696 a 13 13 0 0 1 26 0 c 0 6 -5 8 -13 8 s -13 -2 -13 -8 Z" fill="#11100c" /><path d="M 2784 764 Q 3048 918 3312 764 L 3400 1468 Q 3048 1644 2696 1468 Z" fill="#3d5b43" />
</svg>
